<svg width="37" height="34" viewBox="0 0 37 34" fill="none" xmlns="http://www.w3.org/2000/svg">
<path fill-rule="evenodd" clip-rule="evenodd" d="M18.3959 0C8.56238 0 0.597656 7.45087 0.597656 16.65C0.597656 24.0176 5.69241 30.2406 12.7672 32.4467C13.6571 32.5924 13.9909 32.0929 13.9909 31.6558C13.9909 31.2604 13.9686 29.9492 13.9686 28.5547C9.49679 29.3248 8.33991 27.5349 7.98394 26.5984C7.78371 26.1197 6.91604 24.642 6.15962 24.2466C5.53668 23.9344 4.64676 23.1643 6.13737 23.1435C7.53898 23.1227 8.54014 24.3506 8.87386 24.8501C10.4757 27.3684 13.0342 26.6608 14.0576 26.2238C14.2133 25.1415 14.6805 24.4131 15.1922 23.9968C11.2321 23.5806 7.09403 22.1445 7.09403 15.7759C7.09403 13.9652 7.78371 12.4667 8.91835 11.3012C8.74037 10.8849 8.11743 9.17831 9.09633 6.88894C9.09633 6.88894 10.5869 6.45188 13.9909 8.59556C15.4147 8.22094 16.9276 8.03362 18.4404 8.03362C19.9533 8.03362 21.4661 8.22094 22.89 8.59556C26.2939 6.43106 27.7845 6.88894 27.7845 6.88894C28.7634 9.17831 28.1405 10.8849 27.9625 11.3012C29.0971 12.4667 29.7868 13.9444 29.7868 15.7759C29.7868 22.1653 25.6265 23.5806 21.6664 23.9968C22.3116 24.5171 22.8678 25.5161 22.8678 27.0771C22.8678 29.304 22.8455 31.0939 22.8455 31.6558C22.8455 32.0929 23.1792 32.6132 24.0691 32.4467C31.0995 30.2406 36.1942 23.9968 36.1942 16.65C36.1942 7.45087 28.2295 0 18.3959 0Z" fill="black"/>
</svg>
