<svg width="34" height="34" viewBox="0 0 34 34" fill="none" xmlns="http://www.w3.org/2000/svg">
<g clip-path="url(#clip0_770_298)">
<path d="M30.835 0H2.45848C1.09916 0 0 1.07314 0 2.39994V30.8936C0 32.2203 1.09916 33.3 2.45848 33.3H30.835C32.1943 33.3 33.3 32.2204 33.3 30.9001V2.39994C33.3 1.07314 32.1943 0 30.835 0ZM9.87943 28.3765H4.93646V12.481H9.87943V28.3765ZM7.40795 10.3152C5.821 10.3152 4.53973 9.03392 4.53973 7.45348C4.53973 5.87303 5.821 4.59176 7.40795 4.59176C8.9884 4.59176 10.2697 5.87303 10.2697 7.45348C10.2697 9.02742 8.9884 10.3152 7.40795 10.3152ZM28.3765 28.3765H23.4401V20.6499C23.4401 18.8093 23.4076 16.4354 20.871 16.4354C18.302 16.4354 17.9118 18.4451 17.9118 20.5198V28.3765H12.9818V12.481H17.7166V14.6533H17.7817C18.4386 13.4046 20.0515 12.0843 22.4515 12.0843C27.453 12.0843 28.3765 15.3752 28.3765 19.6548V28.3765V28.3765Z" fill="black"/>
</g>
<defs>
<clipPath id="clip0_770_298">
<rect width="33.3" height="33.3" fill="white"/>
</clipPath>
</defs>
</svg>
