<svg width="157" height="261" viewBox="0 0 157 261" fill="none" xmlns="http://www.w3.org/2000/svg">
<g clip-path="url(#clip0_546_93)">
<path d="M125.582 77.2894C138.292 70.386 153.768 79.3206 153.829 93.5976L154.142 166.081C154.205 180.739 138.056 189.987 125.278 182.609L60.4386 145.174C47.6606 137.797 48.0055 119.425 61.0551 112.337L125.582 77.2894Z" fill="#55BEC0"/>
<path d="M1.36013 165.779C1.3019 151.468 16.8746 142.478 29.6768 149.431L94.5177 184.647C107.567 191.735 107.95 210.003 95.202 217.363L30.6562 254.629C17.9087 261.989 1.71444 252.849 1.65508 238.261L1.36013 165.779Z" fill="#394F6B"/>
<path d="M0.72732 20.5581C0.669085 6.24712 16.2417 -2.74376 29.044 4.20944L93.8849 39.4259C106.935 46.5135 107.317 64.7821 94.5692 72.1419L30.0233 109.407C17.2759 116.767 1.08163 107.628 1.02227 93.0402L0.72732 20.5581Z" fill="#1C2347"/>
</g>
<defs>
<clipPath id="clip0_546_93">
<rect width="157" height="261" fill="white"/>
</clipPath>
</defs>
</svg>
