<svg width="322" height="363" viewBox="0 0 322 363" fill="none" xmlns="http://www.w3.org/2000/svg">
<path d="M177.55 214.781C178.928 200.383 194.985 192.542 206.859 200.469L267.143 240.715C279.335 248.854 277.979 267.414 264.721 273.888L197.442 306.739C184.184 313.213 169.141 302.661 170.556 287.878L177.55 214.781Z" fill="#55BEC0"/>
<path d="M29.7166 200.378C17.1419 193.545 16.7501 175.568 29.004 167.688L91.0679 127.781C103.559 119.749 119.759 128.201 120.08 142.917L121.704 217.431C122.025 232.147 106.222 241.948 93.4046 234.984L29.7166 200.378Z" fill="#394F6B"/>
<path d="M176.362 125.806C162.728 121.459 158.963 103.876 169.517 93.833L222.972 42.9691C233.73 32.7324 251.23 37.9884 254.312 52.3818L269.916 125.261C272.997 139.655 259.319 152.252 245.421 147.821L176.362 125.806Z" fill="#1C2347"/>
</svg>
