<svg width="505" height="220" viewBox="0 0 505 220" fill="none" xmlns="http://www.w3.org/2000/svg">
<path d="M147.776 70.5272C162.232 70.9888 171.075 86.5165 163.917 98.8696L127.576 161.585C120.226 174.268 101.618 174.093 94.3165 161.271L57.2642 96.2121C49.9622 83.3908 59.5393 67.7092 74.382 68.1832L147.776 70.5272Z" fill="#55BEC0"/>
<path d="M237.94 85.3397C244.95 72.8634 262.932 72.7271 270.636 85.0918L309.657 147.717C317.511 160.32 308.829 176.399 294.11 176.51L219.581 177.075C204.862 177.187 195.286 161.247 202.432 148.529L237.94 85.3397Z" fill="#394F6B"/>
<path d="M339.654 97.8818C332.784 85.3274 342.192 70.0029 356.76 70.0164L430.547 70.0847C445.398 70.0984 454.438 85.978 446.737 98.5224L407.744 162.04C400.043 174.584 381.45 174.264 374.448 161.467L339.654 97.8818Z" fill="#1C2347"/>
</svg>
