<svg width="359" height="304" viewBox="0 0 359 304" fill="none" xmlns="http://www.w3.org/2000/svg">
<path d="M157.287 146.657C168.871 137.995 185.471 144.608 187.588 158.727L198.337 230.41C200.51 244.907 185.862 256.383 172.155 250.923L102.6 223.216C88.8923 217.756 86.5878 199.527 98.4805 190.633L157.287 146.657Z" fill="#55BEC0"/>
<path d="M69.2125 80.2349C67.4963 66.0271 81.9223 55.2923 95.444 60.7151L163.929 88.1809C177.712 93.7086 180.208 111.81 168.4 120.597L108.607 165.091C96.7978 173.878 79.6536 166.677 77.9043 152.195L69.2125 80.2349Z" fill="#394F6B"/>
<path d="M199.896 127.76C198.18 113.552 212.606 102.818 226.128 108.24L294.612 135.706C308.395 141.234 310.892 159.335 299.083 168.123L239.29 212.616C227.481 221.404 210.337 214.202 208.588 199.72L199.896 127.76Z" fill="#1C2347"/>
</svg>
