<svg width="37" height="34" viewBox="0 0 37 34" fill="none" xmlns="http://www.w3.org/2000/svg">
<path fill-rule="evenodd" clip-rule="evenodd" d="M18.2983 0C8.46473 0 0.5 7.45087 0.5 16.65C0.5 24.0176 5.59476 30.2406 12.6696 32.4467C13.5595 32.5924 13.8932 32.0929 13.8932 31.6558C13.8932 31.2604 13.871 29.9492 13.871 28.5548C9.39914 29.3248 8.24225 27.5349 7.88628 26.5984C7.68605 26.1197 6.81839 24.642 6.06196 24.2466C5.43902 23.9344 4.54911 23.1643 6.03971 23.1435C7.44133 23.1227 8.44248 24.3506 8.7762 24.8501C10.378 27.3684 12.9365 26.6608 13.9599 26.2238C14.1157 25.1415 14.5829 24.4131 15.0946 23.9968C11.1345 23.5806 6.99637 22.1445 6.99637 15.7759C6.99637 13.9652 7.68605 12.4667 8.82069 11.3012C8.64271 10.8849 8.01977 9.17831 8.99868 6.88894C8.99868 6.88894 10.4893 6.45188 13.8932 8.59556C15.3171 8.22094 16.8299 8.03362 18.3428 8.03362C19.8556 8.03362 21.3685 8.22094 22.7923 8.59556C26.1963 6.43106 27.6869 6.88894 27.6869 6.88894C28.6658 9.17831 28.0428 10.8849 27.8649 11.3012C28.9995 12.4667 29.6892 13.9444 29.6892 15.7759C29.6892 22.1653 25.5288 23.5806 21.5687 23.9968C22.2139 24.5171 22.7701 25.5161 22.7701 27.0771C22.7701 29.304 22.7478 31.0939 22.7478 31.6558C22.7478 32.0929 23.0816 32.6132 23.9715 32.4467C31.0018 30.2406 36.0966 23.9968 36.0966 16.65C36.0966 7.45087 28.1318 0 18.2983 0Z" fill="white"/>
</svg>
