<svg width="34" height="34" viewBox="0 0 34 34" fill="none" xmlns="http://www.w3.org/2000/svg">
<g clip-path="url(#clip0_316_142)">
<path d="M17.2501 2.9983C21.6988 2.9983 22.2256 3.01781 23.9751 3.09586C25.6011 3.1674 26.4791 3.44057 27.0645 3.6682C27.8385 3.96738 28.3978 4.3316 28.9766 4.91045C29.562 5.4958 29.9197 6.04863 30.2189 6.8226C30.4465 7.40795 30.7197 8.29248 30.7912 9.91195C30.8693 11.668 30.8888 12.1948 30.8888 16.637C30.8888 21.0857 30.8693 21.6125 30.7912 23.362C30.7197 24.988 30.4465 25.866 30.2189 26.4514C29.9197 27.2254 29.5555 27.7847 28.9766 28.3635C28.3913 28.9489 27.8385 29.3066 27.0645 29.6058C26.4791 29.8334 25.5946 30.1066 23.9751 30.1781C22.2191 30.2562 21.6923 30.2757 17.2501 30.2757C12.8014 30.2757 12.2746 30.2562 10.5251 30.1781C8.89908 30.1066 8.02106 29.8334 7.4357 29.6058C6.66174 29.3066 6.1024 28.9424 5.52355 28.3635C4.9382 27.7782 4.58049 27.2254 4.28131 26.4514C4.05367 25.866 3.78051 24.9815 3.70897 23.362C3.63092 21.606 3.61141 21.0792 3.61141 16.637C3.61141 12.1883 3.63092 11.6615 3.70897 9.91195C3.78051 8.28598 4.05367 7.40795 4.28131 6.8226C4.58049 6.04863 4.94471 5.4893 5.52355 4.91045C6.10891 4.3251 6.66174 3.96738 7.4357 3.6682C8.02106 3.44057 8.90559 3.1674 10.5251 3.09586C12.2746 3.01781 12.8014 2.9983 17.2501 2.9983ZM17.2501 0C12.7299 0 12.164 0.0195117 10.3885 0.0975586C8.61942 0.175605 7.40318 0.461777 6.34955 0.871523C5.25039 1.30078 4.32033 1.86662 3.39678 2.79668C2.46672 3.72023 1.90088 4.65029 1.47162 5.74295C1.06187 6.80309 0.775703 8.01281 0.697656 9.78187C0.619609 11.5639 0.600098 12.1298 0.600098 16.65C0.600098 21.1702 0.619609 21.7361 0.697656 23.5116C0.775703 25.2807 1.06187 26.4969 1.47162 27.5505C1.90088 28.6497 2.46672 29.5798 3.39678 30.5033C4.32033 31.4269 5.25039 31.9992 6.34305 32.422C7.40318 32.8317 8.61291 33.1179 10.382 33.1959C12.1575 33.274 12.7234 33.2935 17.2436 33.2935C21.7638 33.2935 22.3297 33.274 24.1052 33.1959C25.8743 33.1179 27.0905 32.8317 28.1441 32.422C29.2368 31.9992 30.1669 31.4269 31.0904 30.5033C32.014 29.5798 32.5863 28.6497 33.0091 27.5571C33.4188 26.4969 33.705 25.2872 33.783 23.5181C33.8611 21.7426 33.8806 21.1767 33.8806 16.6565C33.8806 12.1363 33.8611 11.5704 33.783 9.79488C33.705 8.02582 33.4188 6.80959 33.0091 5.75596C32.5993 4.65029 32.0335 3.72023 31.1034 2.79668C30.1799 1.87313 29.2498 1.30078 28.1572 0.878027C27.097 0.468281 25.8873 0.182109 24.1182 0.104063C22.3362 0.0195117 21.7703 0 17.2501 0Z" fill="white"/>
<path d="M17.2499 8.09717C12.5281 8.09717 8.69727 11.928 8.69727 16.6498C8.69727 21.3716 12.5281 25.2024 17.2499 25.2024C21.9717 25.2024 25.8025 21.3716 25.8025 16.6498C25.8025 11.928 21.9717 8.09717 17.2499 8.09717ZM17.2499 22.1976C14.1866 22.1976 11.7021 19.7131 11.7021 16.6498C11.7021 13.5865 14.1866 11.102 17.2499 11.102C20.3132 11.102 22.7977 13.5865 22.7977 16.6498C22.7977 19.7131 20.3132 22.1976 17.2499 22.1976Z" fill="white"/>
<path d="M28.1374 7.75891C28.1374 8.86457 27.2399 9.75561 26.1407 9.75561C25.0351 9.75561 24.144 8.85807 24.144 7.75891C24.144 6.65324 25.0416 5.76221 26.1407 5.76221C27.2399 5.76221 28.1374 6.65975 28.1374 7.75891Z" fill="white"/>
</g>
<defs>
<clipPath id="clip0_316_142">
<rect width="33.3" height="33.3" fill="white" transform="translate(0.600098)"/>
</clipPath>
</defs>
</svg>
