<svg width="34" height="34" viewBox="0 0 34 34" fill="none" xmlns="http://www.w3.org/2000/svg">
<g clip-path="url(#clip0_316_138)">
<path d="M33.065 9.99006C33.065 9.99006 32.7398 7.69418 31.7382 6.68607C30.4699 5.35928 29.0521 5.35277 28.4017 5.27473C23.7449 4.93652 16.7532 4.93652 16.7532 4.93652H16.7402C16.7402 4.93652 9.74848 4.93652 5.09168 5.27473C4.44129 5.35277 3.02344 5.35928 1.75518 6.68607C0.753574 7.69418 0.434883 9.99006 0.434883 9.99006C0.434883 9.99006 0.0966797 12.6892 0.0966797 15.3818V17.9053C0.0966797 20.5979 0.428379 23.2971 0.428379 23.2971C0.428379 23.2971 0.753574 25.5929 1.74867 26.601C3.01693 27.9278 4.68193 27.8823 5.42338 28.0254C8.08998 28.279 16.7467 28.3571 16.7467 28.3571C16.7467 28.3571 23.7449 28.3441 28.4017 28.0124C29.0521 27.9343 30.4699 27.9278 31.7382 26.601C32.7398 25.5929 33.065 23.2971 33.065 23.2971C33.065 23.2971 33.3967 20.6044 33.3967 17.9053V15.3818C33.3967 12.6892 33.065 9.99006 33.065 9.99006ZM13.3061 20.9687V11.6095L22.301 16.3054L13.3061 20.9687Z" fill="white"/>
</g>
<defs>
<clipPath id="clip0_316_138">
<rect width="33.3" height="33.3" fill="white" transform="translate(0.0966797)"/>
</clipPath>
</defs>
</svg>
